<svg version="1.2" xmlns="http://www.w3.org/2000/svg" viewBox="0 0 800 600" width="800" height="600"><style>.a{fill:#063e79}</style><path fill-rule="evenodd" class="a" d="m800 100v400c0 55.2-44.8 100-100 100h-600c-55.2 0-100-44.8-100-100v-400c0-55.2 44.8-100 100-100h600c55.2 0 100 44.8 100 100zm-88.9 448.7l-229.3-240.8-81.8 65-85.5-64.6-225.6 240.4c3.6 0.8 618.6 0.8 622.2 0zm-658.7-34.3l222.6-239.4-225-175v400c0 5.1 1 9.9 2.4 14.4zm22.6-464.4l325 250 325-250zm675 50l-225 175 222.6 239.4c1.4-4.5 2.4-9.3 2.4-14.4z"/></svg>