<svg version="1.2" xmlns="http://www.w3.org/2000/svg" viewBox="0 0 800 732" width="800" height="732"><style>.a{fill:#063e79}</style><path class="a" d="m26 731.4h104c14.3 0 26-11.6 26-26v-454.6c0-14.3-11.7-26-26-26h-104c-14.4 0-26 11.7-26 26v454.6c0 14.4 11.6 26 26 26z"/><path class="a" d="m26 144.9h104c14.3 0 26-11.6 26-26v-92.3c0-14.4-11.7-26-26-26h-104c-14.4 0-26 11.6-26 26v92.3c0 14.4 11.6 26 26 26z"/><path class="a" d="m760.9 277.6q-22-28.9-64.7-47.5-42.7-18.6-94.3-18.6-104.8 0-177.6 80c-9.7 10.6-16.7 8.3-16.7-6v-34.7c0-14.3-11.6-26-26-26h-92.9c-14.3 0-26 11.7-26 26v454.6c0 14.4 11.7 26 26 26h104c14.4 0 26-11.6 26-26v-158.1q0-98.8 11.9-135.4 12-36.6 44.2-58.8 32.1-22.2 72.7-22.2 31.6 0 54.1 15.5 22.5 15.5 32.5 43.6 9.9 28 9.9 123.5v191.9c0 14.4 11.7 26 26 26h104c14.4 0 26-11.6 26-26v-257.4q0-68.3-8.6-104.9-8.6-36.7-30.5-65.5z"/></svg>