<svg version="1.2" xmlns="http://www.w3.org/2000/svg" viewBox="0 0 800 800" width="800" height="800"><style>.a{fill:#063e79}</style><path fill-rule="evenodd" class="a" d="m662 617c7.6-12.8 5.9-29.6-5.1-40.6l-3.1-2.7c-13.1-10.2-32-9.3-44 2.7l-43.1 43.1v-319.5c0-18.4-15-33.3-33.4-33.3l-3.9 0.2c-16.5 1.9-29.4 16-29.4 33.1v319.5l-43.1-43.1-3.1-2.7c-13.1-10.2-32-9.3-44 2.7-13.1 13-13.1 34.1 0 47.2l100 100 3 2.6 3.2 2.3 3.2 1.7 3.7 1.5 4.6 1.1 3.9 0.5h3l2.8-0.2 3.9-0.7 3.6-1 2.9-1.3 2.4-1.2 4.1-2.8q1.5-1.2 2.8-2.5l100-100 2.8-3.2zm-521.7-437.4c-10.1 13.1-9.2 32 2.8 44 12 12 30.9 12.9 44 2.7l3.1-2.7 43.1-43.1v319.5l0.3 3.9c1.7 15.3 13.9 27.4 29.2 29.2l3.9 0.2 3.9-0.2c16.5-1.9 29.4-16 29.4-33.1v-319.5l43.1 43.1 3.1 2.7c12 9.4 28.9 9.4 40.9 0l3.2-2.7 2.7-3.2c9.3-12 9.3-28.8 0-40.8l-2.7-3.2-100.1-100-1.3-1.3-2.2-1.7-2.7-1.9-2.2-1.2-2.9-1.3-1.8-0.7-4.6-1.1-3.9-0.5h-3.9l-3.8 0.5-3.1 0.7-3.5 1.1-3.8 1.8-3.7 2.4-3.7 3.2-100 100z"/></svg>