<svg version="1.2" xmlns="http://www.w3.org/2000/svg" viewBox="0 0 800 800" width="800" height="800"><style>.a{fill:#005f73}</style><filter id="f0"><feFlood flood-color="#063e79" flood-opacity="1" /><feBlend mode="normal" in2="SourceGraphic"/><feComposite in2="SourceAlpha" operator="in" /></filter><g filter="url(#f0)"><path class="a" d="m447 138.9c-156.5 0-283.4 126.9-283.5 283.5 0.1 156.6 127 283.5 283.5 283.5 156.6 0 283.5-126.9 283.5-283.5 0-156.6-126.9-283.5-283.5-283.5zm-166.6 116.8c15.9-15.9 34.1-29.5 54-40.4-10.6 16.1-19.7 34.3-27.4 54.2h-39.1c4-4.7 8.1-9.4 12.5-13.8zm-40.2 53.6h54.3c-7.5 28.9-11.9 60.3-13.3 93.2h-68.9c2.9-33.6 12.5-65.2 27.9-93.2zm0 226.2c-15.4-28-25-59.6-27.9-93.2h68.6c1.4 33 6 64.3 13.5 93.2zm40.1 53.6c-4.3-4.4-8.4-9-12.4-13.8h39.1c5.5 14.5 11.8 28 18.9 40.5 2.7 4.8 5.6 9.3 8.6 13.7-20-10.8-38.2-24.5-54.2-40.4zm146.8 68c-2-0.1-3.9-0.2-5.9-0.5-6.5-2.6-13-6.1-19.4-10.9-19.3-14.3-37.6-38.7-51.7-70.4h77zm0-121.5h-91.3c-8.2-28.2-13.3-59.7-14.8-93.3h106.1zm0-133h-106.4c1.5-33.6 6.8-65.1 15-93.2h91.4zm0-133h-76.9c3.3-7.3 6.7-14.4 10.4-20.9 12.2-21.6 26.4-38.4 41.2-49.5 6.4-4.7 12.9-8.2 19.4-10.9 1.9-0.2 3.9-0.3 5.9-0.5zm226.8 39.8c15.3 28.1 25 59.7 27.8 93.2h-68.5c-1.4-32.9-6-64.3-13.6-93.2zm-40.1-53.5c4.4 4.3 8.5 9 12.5 13.7h-39.2c-5.5-14.4-11.8-27.9-18.9-40.4-2.7-4.8-5.6-9.3-8.5-13.8 19.9 10.9 38.1 24.5 54.1 40.5zm-146.8-68.1c2 0.2 4 0.3 6 0.5 6.4 2.7 12.9 6.2 19.3 11 19.3 14.3 37.6 38.7 51.8 70.3h-77.1zm0 121.6h91.3c8.2 28.1 13.3 59.7 14.8 93.2h-106.1zm66.6 286.9c-12.2 21.6-26.5 38.5-41.3 49.5-6.4 4.8-12.9 8.3-19.3 11-2 0.2-4 0.3-6 0.4v-81.7h77c-3.3 7.3-6.7 14.3-10.4 20.8zm-66.6-60.7v-93.2h106.4c-1.5 33.6-6.8 65.1-14.9 93.2zm146.7 53.6c-15.9 15.9-34.1 29.5-54 40.4 10.6-16.1 19.7-34.3 27.4-54.1h39.1c-4 4.7-8.1 9.3-12.5 13.7zm40.2-53.6h-54.3c7.5-28.8 11.9-60.2 13.3-93.2h68.9c-2.9 33.6-12.5 65.2-27.9 93.2z"/><path class="a" d="m627.6 717.2c-56.4 34.5-118.7 50.9-180.2 50.9-116.4 0-229.9-58.7-295.2-165.2-34.5-56.3-50.9-118.6-50.9-180.2 0-116.3 58.7-229.8 165.2-295.1l-16.6-27.2c-116.3 71.3-180.5 195.3-180.4 322.3-0.1 67.3 17.9 135.4 55.6 196.9 71.2 116.2 195.3 180.4 322.3 180.4 67.2 0 135.3-18 196.8-55.6l-16.6-27.2z"/><path class="a" d="m382.2 109.1h149c15.3 0 27.8-5.2 27.8-20.6 0-15.3-29.4-30.2-44.7-30.2h-30.8l-62.7-56.4c-3.1-3.4-15.5-1.2-19.3-1.2-4.7 0.1-3.6 7.5-1.9 11.8l18.4 45.8h-43.9l-24-38.2c-4.3-4.6-10.9-6.1-16.7-3.9-5.8 2.3-9.7 7.9-9.7 14.1l-0.4 28v8.3c0 23.5 28.3 42.5 58.9 42.5z"/></g></svg>